<svg width="38" height="34" viewBox="0 0 38 34" fill="none" xmlns="http://www.w3.org/2000/svg">
<path fill-rule="evenodd" clip-rule="evenodd" d="M13.8992 0.324219C14.4606 0.324219 14.9586 0.684617 15.1341 1.21791L24.0992 28.4649L27.9643 16.7179C28.1398 16.1846 28.6378 15.8242 29.1992 15.8242H35.9992C36.7172 15.8242 37.2992 16.4062 37.2992 17.1242C37.2992 17.8422 36.7172 18.4242 35.9992 18.4242H30.14L25.3341 33.0305C25.1586 33.5638 24.6606 33.9242 24.0992 33.9242C23.5378 33.9242 23.0398 33.5638 22.8643 33.0305L13.8992 5.78358L10.0341 17.5305C9.85862 18.0638 9.36063 18.4242 8.79922 18.4242H1.99922C1.28125 18.4242 0.699219 17.8422 0.699219 17.1242C0.699219 16.4062 1.28125 15.8242 1.99922 15.8242H7.8584L12.6643 1.21791C12.8398 0.684617 13.3378 0.324219 13.8992 0.324219Z" fill="#6000A2"/>
</svg>
