<svg width="34" height="34" viewBox="0 0 34 34" fill="none" xmlns="http://www.w3.org/2000/svg">
<path d="M17 10.625C19.4853 10.625 21.5 8.61028 21.5 6.125C21.5 3.63972 19.4853 1.625 17 1.625C14.5147 1.625 12.5 3.63972 12.5 6.125C12.5 8.61028 14.5147 10.625 17 10.625ZM17 10.625V31.625M17 31.625C13.0218 31.625 9.20644 30.0446 6.3934 27.2316C3.58035 24.4186 2 20.6032 2 16.625H6.5M17 31.625C20.9782 31.625 24.7936 30.0446 27.6066 27.2316C30.4196 24.4186 32 20.6032 32 16.625H27.5" stroke="#6000A2" stroke-width="3" stroke-linecap="round" stroke-linejoin="round"/>
</svg>
