<svg width="38" height="42" viewBox="0 0 38 42" fill="none" xmlns="http://www.w3.org/2000/svg">
<path d="M2.51758 11.5027L19.2501 21.1819L35.9826 11.5027M19.25 40.4827V21.1627M36.5 28.8294V13.4961C36.4993 12.8238 36.3219 12.1636 35.9854 11.5816C35.649 10.9996 35.1655 10.5163 34.5833 10.1802L21.1667 2.51357C20.5839 2.17712 19.9229 2 19.25 2C18.5771 2 17.9161 2.17712 17.3333 2.51357L3.91667 10.1802C3.3345 10.5163 2.85096 10.9996 2.51455 11.5816C2.17814 12.1636 2.00069 12.8238 2 13.4961V28.8294C2.00069 29.5016 2.17814 30.1618 2.51455 30.7438C2.85096 31.3258 3.3345 31.8091 3.91667 32.1452L17.3333 39.8119C17.9161 40.1483 18.5771 40.3255 19.25 40.3255C19.9229 40.3255 20.5839 40.1483 21.1667 39.8119L34.5833 32.1452C35.1655 31.8091 35.649 31.3258 35.9854 30.7438C36.3219 30.1618 36.4993 29.5016 36.5 28.8294Z" stroke="#6000A2" stroke-width="3" stroke-linecap="round" stroke-linejoin="round"/>
</svg>
