<svg width="18" height="18" viewBox="0 0 18 18" fill="none" xmlns="http://www.w3.org/2000/svg">
<path d="M5.56116 0.75C2.90809 0.75 0.75 2.91009 0.75 5.56384V12.4388C0.75 15.0919 2.91009 17.25 5.56384 17.25H12.4388C15.0919 17.25 17.25 15.0899 17.25 12.4362V5.56116C17.25 2.90809 15.0899 0.75 12.4362 0.75H5.56116ZM13.8125 3.5C14.192 3.5 14.5 3.808 14.5 4.1875C14.5 4.567 14.192 4.875 13.8125 4.875C13.433 4.875 13.125 4.567 13.125 4.1875C13.125 3.808 13.433 3.5 13.8125 3.5ZM9 4.875C11.2749 4.875 13.125 6.72506 13.125 9C13.125 11.2749 11.2749 13.125 9 13.125C6.72506 13.125 4.875 11.2749 4.875 9C4.875 6.72506 6.72506 4.875 9 4.875ZM9 6.25C8.27065 6.25 7.57118 6.53973 7.05546 7.05546C6.53973 7.57118 6.25 8.27065 6.25 9C6.25 9.72935 6.53973 10.4288 7.05546 10.9445C7.57118 11.4603 8.27065 11.75 9 11.75C9.72935 11.75 10.4288 11.4603 10.9445 10.9445C11.4603 10.4288 11.75 9.72935 11.75 9C11.75 8.27065 11.4603 7.57118 10.9445 7.05546C10.4288 6.53973 9.72935 6.25 9 6.25V6.25Z" fill="#262625"/>
</svg>
