<svg width="24" height="24" viewBox="0 0 24 24" fill="none" xmlns="http://www.w3.org/2000/svg">
<g clip-path="url(#clip0_1_72)">
<path d="M20.6601 3.97683C20.3531 3.71448 19.8708 3.67694 19.3722 3.87865H19.3713C18.8469 4.09068 4.52653 10.2798 3.94356 10.5327C3.83753 10.5698 2.91149 10.918 3.00688 11.6935C3.09203 12.3927 3.8363 12.6823 3.92719 12.7157L7.56787 13.9717C7.80941 14.7819 8.69983 17.7709 8.89674 18.4094C9.01956 18.8075 9.21975 19.3305 9.5706 19.4382C9.87846 19.5578 10.1847 19.4485 10.3828 19.2918L12.6087 17.2115L16.2019 20.0351L16.2874 20.0866C16.5314 20.1955 16.7652 20.25 16.9883 20.25C17.1606 20.25 17.326 20.2174 17.4841 20.1522C18.0224 19.9295 18.2377 19.4126 18.2603 19.354L20.9442 5.29724C21.108 4.54649 20.8803 4.16451 20.6601 3.97683ZM10.7787 14.4742L9.55054 17.7742L8.32237 13.6492L17.7383 6.63663L10.7787 14.4742Z" fill="#262625"/>
</g>
<defs>
<clipPath id="clip0_1_72">
<rect width="18" height="18" fill="white" transform="translate(3 3)"/>
</clipPath>
</defs>
</svg>
