<?xml version="1.0" encoding="UTF-8"?>
<!DOCTYPE svg PUBLIC "-//W3C//DTD SVG 1.1//EN" "http://www.w3.org/Graphics/SVG/1.1/DTD/svg11.dtd">
<!-- Creator: CorelDRAW 2021.5 -->
<svg xmlns="http://www.w3.org/2000/svg" xml:space="preserve" width="44.815mm" height="11.634mm" version="1.1" style="shape-rendering:geometricPrecision; text-rendering:geometricPrecision; image-rendering:optimizeQuality; fill-rule:evenodd; clip-rule:evenodd"
viewBox="0 0 4481.5 1163.4"
 xmlns:xlink="http://www.w3.org/1999/xlink"
 xmlns:xodm="http://www.corel.com/coreldraw/odm/2003">
 <defs>
  <style type="text/css">
   <![CDATA[
    .fil0 {fill:#4CC2C4;fill-rule:nonzero}
   ]]>
  </style>
 </defs>
 <g id="Слой_x0020_1">
  <metadata id="CorelCorpID_0Corel-Layer"/>
  <g id="_105553190213472">
   <g>
    <path class="fil0" d="M2671.58 3.15c131.9,0 200.29,61.32 200.29,168.07 0,87.45 -43.97,144.22 -131.89,179.42l-449.42 178.3c-25.64,10.22 -41.51,30.67 -41.51,56.78 0,29.53 20.75,49.97 61.06,49.97l543.43 0 0 134.01 -553.21 0c-131.89,0 -199.06,-61.33 -199.06,-168.08 0,-87.44 43.97,-144.22 133.12,-179.42l446.97 -178.3c26.86,-10.22 42.74,-30.66 42.74,-56.78 0,-29.53 -20.76,-49.97 -62.28,-49.97l-531.24 0 0 -134 541 0z"/>
    <polygon class="fil0" points="3600.9,3.15 3600.9,137.15 3360.31,137.15 3360.31,769.7 3214.99,769.7 3214.99,137.15 2974.42,137.15 2974.42,3.15 "/>
    <polygon class="fil0" points="3851.21,3.15 4082.02,331.35 4315.27,3.15 4486.25,3.15 4154.07,439.22 4154.07,769.7 4008.74,769.7 4008.74,439.22 3676.58,3.15 "/>
   </g>
   <g>
    <path class="fil0" d="M110.93 584.27c0,-324.04 145.41,-474.96 457.62,-474.96l482.06 0 0 -105.69 -482.06 0c-362,0 -563.31,190.69 -563.31,580.65 0,388.22 199.46,578.9 563.31,578.9l482.06 0 0 -105.69 -482.06 0c-312.21,0 -457.62,-150.36 -457.62,-473.21z"/>
    <path class="fil0" d="M1220.66 3.62l-64.71 -0.48 0 152.94c0,31.9 -25.85,57.75 -57.75,57.75l-410.3 0c-87.27,0 -158.02,70.75 -158.02,158.02 0,87.27 70.75,158.02 158.02,158.02l415.38 0c29.09,0 52.67,23.58 52.67,52.67 0,29.09 -23.58,52.67 -52.67,52.67l-415.38 0c-87.27,0 -158.02,70.75 -158.02,158.02 0,87.27 70.75,158.01 158.02,158.01l416.84 0c28.28,0 51.21,22.93 51.21,51.21l0 159.48 0.01 1.24 64.7 0c362,0 563.32,-190.68 563.32,-580.64 0,-388.23 -199.47,-578.91 -563.32,-578.91zm40.63 1052.85l0 0 0 -1.95 0 -59.15c0,-82.55 -66.92,-149.47 -149.47,-149.47l-423.92 0c-29.09,0 -52.67,-23.58 -52.67,-52.67 0,-29.09 23.58,-52.68 52.67,-52.68l415.38 0c87.27,0 158.01,-70.74 158.01,-158.01 0,-87.27 -70.74,-158.02 -158.01,-158.02l-415.38 0c-29.09,0 -52.67,-23.58 -52.67,-52.67 0,-29.09 23.58,-52.67 52.67,-52.67l419.74 0c84.86,0 153.65,-68.79 153.65,-153.66l0 -53.25 0 -1.96c284.14,12.85 417,163.76 417,472.22 0,309.59 -132.86,461.05 -417,473.94z"/>
   </g>
   <g>
    <path class="fil0" d="M3187.68 945.13l0 38.02 -117.13 0c-24.6,0 -35.35,10.64 -35.35,27.4 0,17.72 12.13,25.78 35.7,25.78l115.05 0 0 34.49 -116.1 0c-23.56,0 -35.69,8.7 -35.69,26.43 0,17.08 11.44,27.39 35.35,27.39l118.52 0 0 38.03 -118.52 0c-55.45,0 -77.98,-25.45 -77.98,-59.29 0,-24.83 12.14,-41.59 33.62,-49.97 -21.83,-8.38 -32.92,-25.14 -32.92,-48.98 0,-34.81 23.22,-59.3 78.32,-59.3l117.13 0z"/>
    <path class="fil0" d="M3281.63 1162.67l-40.9 0 0 -174.04c0,-28.36 17.33,-47.37 53.71,-47.37 32.58,0 47.14,15.47 56.84,40.29l68.27 138.9c2.77,5.16 7.28,9.02 14.9,9.02 8.66,0 13.86,-4.83 13.86,-12.24l0 -172.1 41.24 0 0 173.71c0,28.69 -17.67,47.7 -53.71,47.7 -32.58,0 -47.48,-15.47 -57.19,-40.28l-68.26 -138.91c-3.12,-6.45 -7.28,-9.35 -14.56,-9.35 -9.36,0 -14.2,4.83 -14.2,12.57l0 172.1z"/>
    <path class="fil0" d="M3732.53 945.13l0 38.02 -117.14 0c-24.6,0 -35.35,10.64 -35.35,27.4 0,17.72 12.14,25.78 35.7,25.78l115.05 0 0 34.49 -116.09 0c-23.57,0 -35.69,8.7 -35.69,26.43 0,17.08 11.43,27.39 35.34,27.39l118.52 0 0 38.03 -118.52 0c-55.44,0 -77.97,-25.45 -77.97,-59.29 0,-24.83 12.13,-41.59 33.62,-49.97 -21.84,-8.38 -32.93,-25.14 -32.93,-48.98 0,-34.81 23.22,-59.3 78.32,-59.3l117.14 0z"/>
    <path class="fil0" d="M3912.07 945.13c52.67,0 75.2,30.29 75.2,65.1 0,27.07 -13.86,56.08 -49.56,65.43l54.41 87.01 -45.4 0 -53.37 -84.12 -60.99 0c-3.81,0 -5.89,1.62 -5.89,5.49l0 78.63 -40.9 0 0 -86.05c0,-24.49 11.09,-34.49 36.74,-34.49l91.14 0c23.22,0 32.58,-14.82 32.58,-30.29 0,-15.47 -10.05,-28.69 -32.58,-28.69l-128.23 0 0 -38.02 126.85 0z"/>
    <path class="fil0" d="M4221.57 945.13l0 38.02 -96.35 0c-45.05,0 -64.8,20.96 -64.8,70.91 0,49.63 19.41,70.58 64.8,70.58l38.82 0c22.87,0 32.58,-12.89 32.58,-30.61 0,-17.41 -9.71,-27.72 -28.77,-27.72l-51.98 0 0 -33.2 56.14 0c41.59,0 62.03,23.85 62.03,61.56 0,38.03 -20.44,68 -72.77,68l-36.05 0c-68.27,0 -105.7,-35.77 -105.7,-108.61 0,-73.16 37.78,-108.93 105.7,-108.93l96.35 0z"/>
    <polygon class="fil0" points="4306.49,945.13 4371.99,1038.27 4438.18,945.13 4486.7,945.13 4392.44,1068.89 4392.44,1162.67 4351.19,1162.67 4351.19,1068.89 4256.94,945.13 "/>
   </g>
   <g>
    <path class="fil0" d="M2326.08 945.13l0 38.03 -90.46 0c-45.05,0 -64.8,20.95 -64.8,70.9 0,49.64 19.41,70.59 64.8,70.59l90.46 0 0 38.03 -90.46 0c-68.26,0 -105.7,-35.78 -105.7,-108.62 0,-73.16 37.78,-108.93 105.7,-108.93l90.46 0z"/>
    <path class="fil0" d="M2398.18 1162.68l-45.05 0 82.13 -193.38c8.66,-20.3 24.61,-28.04 49.21,-28.04 24.26,0 40.2,7.74 48.52,28.04l79.01 193.38 -45.4 0 -71.04 -175.01c-2.08,-5.15 -5.89,-7.41 -11.43,-7.41 -5.55,0 -9.36,2.26 -11.79,7.41l-74.16 175.01z"/>
    <path class="fil0" d="M2772.84 945.13c52.68,0 75.2,30.3 75.2,65.1 0,27.08 -13.86,56.08 -49.56,65.43l54.42 87.02 -45.41 0 -53.37 -84.12 -60.99 0c-3.81,0 -5.89,1.61 -5.89,5.48l0 78.64 -40.89 0 0 -86.06c0,-24.49 11.09,-34.48 36.73,-34.48l91.14 0c23.23,0 32.58,-14.83 32.58,-30.3 0,-15.47 -10.05,-28.68 -32.58,-28.68l-128.22 0 0 -38.03 126.84 0z"/>
   </g>
  </g>
 </g>
</svg>
